<svg width="482" height="420" viewBox="0 0 482 420" fill="none" xmlns="http://www.w3.org/2000/svg">
<g clip-path="url(#clip0_1387_143)">
<g filter="url(#filter0_d_1387_143)">
<path d="M235.796 97.3185C136.132 179.326 40.3751 304.291 20.8331 366.773C19.5303 370.027 8.16455 374.583 3.47446 358.962C-2.38816 339.437 46.4677 233.998 128.544 157.848C189.125 97.319 237.98 52.4103 300.515 44.5996C328.242 41.1364 333.736 43.5253 351.324 43.5253C382.389 42.8728 396.271 44.5995 411.904 40.6942C423.63 36.7894 412.295 50.4573 406.042 54.3622C390.408 64.1249 372.793 65.3193 351.324 66.0778C284.881 63.0509 266.327 75.9615 235.796 97.3185Z" fill="#0D2330"/>
</g>
<g opacity="0.6" filter="url(#filter1_d_1387_143)">
<path d="M242.088 209.911C267.247 138.826 284.716 90.3828 284.716 70.854C303.82 65.2252 330 64.5215 330 65.2252C330 80.9691 310.722 117.417 279.082 190.382C247.752 262.632 224.254 325.119 218.377 340.749L218.375 340.754C211.766 358.33 222.291 366.141 220.333 368.094L220.332 368.095C218.374 370.048 216.416 372 214.458 372C212.5 372 196.011 362.235 197.047 344.66C199.004 311.46 218.589 276.309 242.088 209.911Z" fill="#0D2330"/>
</g>
<g filter="url(#filter2_d_1387_143)">
<path d="M36.2715 208.059C16.2259 211.914 3 213.136 3 219.899C3 223.846 6.91437 227.792 14.7431 227.792C32.4661 227.792 40.3508 227.792 61.7148 228.626C83.0789 229.459 86.9246 251.474 90.8389 247.527C94.7532 243.58 107.424 234.4 128.26 228.626C182.707 213.535 244.018 211.174 294.62 211.174C300.677 211.174 330.862 204.969 322.568 199.595C299.692 184.773 87.5678 198.192 36.2715 208.059Z" fill="#0D2330"/>
</g>
<path opacity="0.2" fill-rule="evenodd" clip-rule="evenodd" d="M138.093 296.708C101.368 344.04 74.2506 388.662 64.8331 418.773C63.5303 422.027 52.1646 426.583 47.4745 410.962C43.321 397.129 66.6324 340.173 109.764 281.061C108.489 280.831 107.141 280.681 105.715 280.626C84.3508 279.792 76.4661 279.792 58.7431 279.792C50.9144 279.792 47 275.846 47 271.899C47 266.144 56.5757 264.402 71.7805 261.635C74.445 261.15 77.2824 260.634 80.2715 260.059C91.1364 257.969 109.216 255.72 131.185 253.613C143.786 238.518 157.615 223.699 172.544 209.848C233.125 149.319 281.98 104.41 344.515 96.5996C363.899 94.1785 372.417 94.6175 381.797 95.1009C385.834 95.309 390.032 95.5253 395.324 95.5253C404.657 95.3292 412.439 95.348 419.183 95.3642C434.888 95.402 444.968 95.4262 455.904 92.6942C467.63 88.7894 456.295 102.457 450.042 106.362C434.408 116.125 416.793 117.319 395.324 118.078C387.598 117.726 380.52 117.589 373.995 117.657C373.752 128.963 364.053 150.527 347.287 187.806L347.287 187.806L347.285 187.81C340.366 203.196 332.242 221.259 323.082 242.382C322.652 243.373 322.224 244.362 321.797 245.35C344.474 246.082 361.042 248.015 366.568 251.595C374.862 256.969 344.677 263.174 338.62 263.174C330.678 263.174 322.473 263.232 314.071 263.389C287.299 326.474 267.676 378.657 262.377 392.749L262.375 392.754C257.777 404.982 261.472 412.484 263.487 416.574C264.369 418.363 264.929 419.5 264.333 420.094L264.332 420.095C262.374 422.048 260.416 424 258.458 424C256.5 424 240.011 414.235 241.047 396.66C242.349 374.574 251.452 351.623 264.32 319.184L264.32 319.184C270.558 303.459 277.68 285.505 285.226 264.339C247.996 266.153 208.599 270.554 172.26 280.626C155.459 285.282 143.966 292.153 138.093 296.708ZM176.892 249.85C215.011 247.162 257.079 245.217 292.07 245.017C313.856 183.467 328.558 141.248 328.714 123.144C309.509 128.554 296.43 137.683 279.796 149.318C243.856 178.891 208.425 214.05 176.892 249.85Z" fill="#0D2330"/>
</g>
<defs>
<filter id="filter0_d_1387_143" x="-1" y="40" width="422" height="342" filterUnits="userSpaceOnUse" color-interpolation-filters="sRGB">
<feFlood flood-opacity="0" result="BackgroundImageFix"/>
<feColorMatrix in="SourceAlpha" type="matrix" values="0 0 0 0 0 0 0 0 0 0 0 0 0 0 0 0 0 0 127 0" result="hardAlpha"/>
<feOffset dy="8"/>
<feGaussianBlur stdDeviation="2"/>
<feComposite in2="hardAlpha" operator="out"/>
<feColorMatrix type="matrix" values="0 0 0 0 0.00392157 0 0 0 0 0.623529 0 0 0 0 0.796078 0 0 0 0.55 0"/>
<feBlend mode="normal" in2="BackgroundImageFix" result="effect1_dropShadow_1387_143"/>
<feBlend mode="normal" in="SourceGraphic" in2="effect1_dropShadow_1387_143" result="shape"/>
</filter>
<filter id="filter1_d_1387_143" x="193" y="65" width="141" height="323" filterUnits="userSpaceOnUse" color-interpolation-filters="sRGB">
<feFlood flood-opacity="0" result="BackgroundImageFix"/>
<feColorMatrix in="SourceAlpha" type="matrix" values="0 0 0 0 0 0 0 0 0 0 0 0 0 0 0 0 0 0 127 0" result="hardAlpha"/>
<feOffset dy="12"/>
<feGaussianBlur stdDeviation="2"/>
<feComposite in2="hardAlpha" operator="out"/>
<feColorMatrix type="matrix" values="0 0 0 0 0.239216 0 0 0 0 0.862745 0 0 0 0 0.592157 0 0 0 0.85 0"/>
<feBlend mode="normal" in2="BackgroundImageFix" result="effect1_dropShadow_1387_143"/>
<feBlend mode="normal" in="SourceGraphic" in2="effect1_dropShadow_1387_143" result="shape"/>
</filter>
<filter id="filter2_d_1387_143" x="-1" y="193" width="329" height="67" filterUnits="userSpaceOnUse" color-interpolation-filters="sRGB">
<feFlood flood-opacity="0" result="BackgroundImageFix"/>
<feColorMatrix in="SourceAlpha" type="matrix" values="0 0 0 0 0 0 0 0 0 0 0 0 0 0 0 0 0 0 127 0" result="hardAlpha"/>
<feOffset dy="8"/>
<feGaussianBlur stdDeviation="2"/>
<feComposite in2="hardAlpha" operator="out"/>
<feColorMatrix type="matrix" values="0 0 0 0 0.584314 0 0 0 0 0.0352941 0 0 0 0 0.321569 0 0 0 0.35 0"/>
<feBlend mode="normal" in2="BackgroundImageFix" result="effect1_dropShadow_1387_143"/>
<feBlend mode="normal" in="SourceGraphic" in2="effect1_dropShadow_1387_143" result="shape"/>
</filter>
<clipPath id="clip0_1387_143">
<rect width="482" height="420" fill="white"/>
</clipPath>
</defs>
</svg>
