<svg width="420" height="420" viewBox="0 0 420 420" fill="none" xmlns="http://www.w3.org/2000/svg">
<g opacity="0.8" filter="url(#filter0_d_1384_254)">
<path d="M232.182 116.329C146.481 186.905 64.139 294.45 47.3347 348.223C46.2144 351.023 36.441 354.944 32.408 341.501C27.3667 324.697 69.378 233.956 139.955 168.421C192.049 116.329 234.06 77.6803 287.834 70.9585C311.677 67.978 316.401 70.0339 331.525 70.0339C358.238 69.4724 370.175 70.9583 383.618 67.5974C393.701 64.2369 383.954 75.9997 378.577 79.3602C365.134 87.762 349.986 88.7899 331.525 89.4427C274.39 86.8377 258.435 97.9487 232.182 116.329Z" fill="#019FCB"/>
</g>
<g opacity="0.8" filter="url(#filter1_d_1384_254)">
<path d="M237.647 213.614C259.211 152.485 274.185 110.828 274.185 94.0341C290.56 89.1936 313 88.5885 313 89.1936C313 102.732 296.476 134.076 269.356 196.82C242.502 258.95 222.361 312.685 217.323 326.126L217.321 326.13C211.656 341.244 220.678 347.962 218.999 349.641L218.999 349.642C217.321 351.321 215.642 353 213.964 353C212.285 353 198.152 344.603 199.04 329.489C200.718 300.94 217.505 270.712 237.647 213.614Z" fill="#3DDC97"/>
</g>
<g opacity="0.8" filter="url(#filter2_d_1384_254)">
<path d="M60.6072 211.868C43.3718 215.163 32 216.207 32 221.987C32 225.359 35.3656 228.732 42.0969 228.732C57.3353 228.732 64.1147 228.732 82.4838 229.444C100.853 230.156 104.159 248.968 107.525 245.596C110.891 242.223 121.785 234.378 139.7 229.444C186.514 216.548 239.231 214.531 282.739 214.531C287.947 214.531 313.9 209.228 306.769 204.636C287.1 191.97 104.713 203.437 60.6072 211.868Z" fill="#950952"/>
</g>
<defs>
<filter id="filter0_d_1384_254" x="28" y="67" width="364" height="294" filterUnits="userSpaceOnUse" color-interpolation-filters="sRGB">
<feFlood flood-opacity="0" result="BackgroundImageFix"/>
<feColorMatrix in="SourceAlpha" type="matrix" values="0 0 0 0 0 0 0 0 0 0 0 0 0 0 0 0 0 0 127 0" result="hardAlpha"/>
<feOffset dy="6"/>
<feGaussianBlur stdDeviation="2"/>
<feComposite in2="hardAlpha" operator="out"/>
<feColorMatrix type="matrix" values="0 0 0 0 0.00392157 0 0 0 0 0.623529 0 0 0 0 0.796078 0 0 0 0.55 0"/>
<feBlend mode="normal" in2="BackgroundImageFix" result="effect1_dropShadow_1384_254"/>
<feBlend mode="normal" in="SourceGraphic" in2="effect1_dropShadow_1384_254" result="shape"/>
</filter>
<filter id="filter1_d_1384_254" x="195" y="89" width="122" height="276" filterUnits="userSpaceOnUse" color-interpolation-filters="sRGB">
<feFlood flood-opacity="0" result="BackgroundImageFix"/>
<feColorMatrix in="SourceAlpha" type="matrix" values="0 0 0 0 0 0 0 0 0 0 0 0 0 0 0 0 0 0 127 0" result="hardAlpha"/>
<feOffset dy="8"/>
<feGaussianBlur stdDeviation="2"/>
<feComposite in2="hardAlpha" operator="out"/>
<feColorMatrix type="matrix" values="0 0 0 0 0.239216 0 0 0 0 0.862745 0 0 0 0 0.592157 0 0 0 0.65 0"/>
<feBlend mode="normal" in2="BackgroundImageFix" result="effect1_dropShadow_1384_254"/>
<feBlend mode="normal" in="SourceGraphic" in2="effect1_dropShadow_1384_254" result="shape"/>
</filter>
<filter id="filter2_d_1384_254" x="28" y="199" width="284" height="57" filterUnits="userSpaceOnUse" color-interpolation-filters="sRGB">
<feFlood flood-opacity="0" result="BackgroundImageFix"/>
<feColorMatrix in="SourceAlpha" type="matrix" values="0 0 0 0 0 0 0 0 0 0 0 0 0 0 0 0 0 0 127 0" result="hardAlpha"/>
<feOffset dy="6"/>
<feGaussianBlur stdDeviation="2"/>
<feComposite in2="hardAlpha" operator="out"/>
<feColorMatrix type="matrix" values="0 0 0 0 0.584314 0 0 0 0 0.0352941 0 0 0 0 0.321569 0 0 0 0.35 0"/>
<feBlend mode="normal" in2="BackgroundImageFix" result="effect1_dropShadow_1384_254"/>
<feBlend mode="normal" in="SourceGraphic" in2="effect1_dropShadow_1384_254" result="shape"/>
</filter>
</defs>
</svg>
