<svg width="471" height="420" viewBox="0 0 471 420" fill="none" xmlns="http://www.w3.org/2000/svg">
<g clip-path="url(#clip0_1397_193)">
<path opacity="0.4" fill-rule="evenodd" clip-rule="evenodd" d="M148.093 292.708C111.368 340.04 84.2506 384.662 74.8331 414.773C73.5303 418.027 62.1646 422.583 57.4745 406.962C53.321 393.129 76.6324 336.173 119.764 277.061C118.489 276.831 117.141 276.681 115.715 276.626C94.3508 275.792 86.4661 275.792 68.7431 275.792C60.9144 275.792 57 271.846 57 267.899C57 262.144 66.5757 260.402 81.7805 257.635C84.445 257.15 87.2824 256.634 90.2715 256.059C101.136 253.969 119.216 251.72 141.185 249.613C153.786 234.518 167.615 219.699 182.544 205.848C243.125 145.319 291.98 100.41 354.515 92.5996C373.899 90.1785 382.417 90.6175 391.797 91.1009C395.834 91.309 400.032 91.5253 405.324 91.5253C414.657 91.3292 422.439 91.348 429.183 91.3642C444.888 91.402 454.968 91.4262 465.904 88.6942C477.63 84.7894 466.295 98.4573 460.042 102.362C444.408 112.125 426.793 113.319 405.324 114.078C397.598 113.726 390.52 113.589 383.995 113.657C383.752 124.963 374.053 146.527 357.287 183.806L357.287 183.806L357.285 183.81C350.366 199.196 342.242 217.259 333.082 238.382C332.652 239.373 332.224 240.362 331.797 241.35C354.474 242.082 371.042 244.015 376.568 247.595C384.862 252.969 354.677 259.174 348.62 259.174C340.678 259.174 332.473 259.232 324.071 259.389C297.299 322.474 277.676 374.657 272.377 388.749L272.375 388.754C267.777 400.982 271.472 408.484 273.487 412.574C274.369 414.363 274.929 415.5 274.333 416.094L274.332 416.095C272.374 418.048 270.416 420 268.458 420C266.5 420 250.011 410.235 251.047 392.66C252.349 370.574 261.452 347.623 274.32 315.184L274.32 315.184C280.558 299.459 287.68 281.505 295.226 260.339C257.996 262.153 218.599 266.554 182.26 276.626C165.459 281.282 153.966 288.153 148.093 292.708ZM186.892 245.85C225.011 243.162 267.079 241.217 302.07 241.017C323.856 179.467 338.558 137.248 338.714 119.144C319.509 124.554 306.43 133.683 289.796 145.318C253.856 174.891 218.425 210.05 186.892 245.85Z" fill="#019FCB"/>
<g opacity="0.8" filter="url(#filter0_d_1397_193)">
<path d="M235.796 97.3185C136.132 179.326 40.3751 304.291 20.8331 366.773C19.5303 370.027 8.16455 374.583 3.47446 358.962C-2.38816 339.437 46.4677 233.998 128.544 157.848C189.125 97.319 237.98 52.4103 300.515 44.5996C328.242 41.1364 333.736 43.5253 351.324 43.5253C382.389 42.8728 396.271 44.5995 411.904 40.6942C423.63 36.7894 412.295 50.4573 406.042 54.3622C390.408 64.1249 372.793 65.3193 351.324 66.0778C284.881 63.0509 266.327 75.9615 235.796 97.3185Z" fill="#950952"/>
</g>
<g opacity="0.8" filter="url(#filter1_d_1397_193)">
<path d="M242.088 209.911C267.247 138.826 284.716 90.3828 284.716 70.854C303.82 65.2252 330 64.5215 330 65.2252C330 80.9691 310.722 117.417 279.082 190.382C247.752 262.632 224.254 325.119 218.377 340.749L218.375 340.754C211.766 358.33 222.291 366.141 220.333 368.094L220.332 368.095C218.374 370.048 216.416 372 214.458 372C212.5 372 196.011 362.235 197.047 344.66C199.004 311.46 218.589 276.309 242.088 209.911Z" fill="#3DDC97"/>
</g>
<g opacity="0.8" filter="url(#filter2_d_1397_193)">
<path d="M36.2715 208.059C16.2259 211.914 3 213.136 3 219.899C3 223.846 6.91437 227.792 14.7431 227.792C32.4661 227.792 40.3508 227.792 61.7148 228.626C83.0789 229.459 86.9246 251.474 90.8389 247.527C94.7532 243.58 107.424 234.4 128.26 228.626C182.707 213.535 244.018 211.174 294.62 211.174C300.677 211.174 330.862 204.969 322.568 199.595C299.692 184.773 87.5678 198.192 36.2715 208.059Z" fill="#950952"/>
</g>
</g>
<defs>
<filter id="filter0_d_1397_193" x="-1" y="40" width="422" height="340" filterUnits="userSpaceOnUse" color-interpolation-filters="sRGB">
<feFlood flood-opacity="0" result="BackgroundImageFix"/>
<feColorMatrix in="SourceAlpha" type="matrix" values="0 0 0 0 0 0 0 0 0 0 0 0 0 0 0 0 0 0 127 0" result="hardAlpha"/>
<feOffset dy="6"/>
<feGaussianBlur stdDeviation="2"/>
<feComposite in2="hardAlpha" operator="out"/>
<feColorMatrix type="matrix" values="0 0 0 0 0.584314 0 0 0 0 0.0352941 0 0 0 0 0.321569 0 0 0 0.35 0"/>
<feBlend mode="normal" in2="BackgroundImageFix" result="effect1_dropShadow_1397_193"/>
<feBlend mode="normal" in="SourceGraphic" in2="effect1_dropShadow_1397_193" result="shape"/>
</filter>
<filter id="filter1_d_1397_193" x="193" y="65" width="141" height="319" filterUnits="userSpaceOnUse" color-interpolation-filters="sRGB">
<feFlood flood-opacity="0" result="BackgroundImageFix"/>
<feColorMatrix in="SourceAlpha" type="matrix" values="0 0 0 0 0 0 0 0 0 0 0 0 0 0 0 0 0 0 127 0" result="hardAlpha"/>
<feOffset dy="8"/>
<feGaussianBlur stdDeviation="2"/>
<feComposite in2="hardAlpha" operator="out"/>
<feColorMatrix type="matrix" values="0 0 0 0 0.239216 0 0 0 0 0.862745 0 0 0 0 0.592157 0 0 0 0.65 0"/>
<feBlend mode="normal" in2="BackgroundImageFix" result="effect1_dropShadow_1397_193"/>
<feBlend mode="normal" in="SourceGraphic" in2="effect1_dropShadow_1397_193" result="shape"/>
</filter>
<filter id="filter2_d_1397_193" x="-1" y="193" width="329" height="65" filterUnits="userSpaceOnUse" color-interpolation-filters="sRGB">
<feFlood flood-opacity="0" result="BackgroundImageFix"/>
<feColorMatrix in="SourceAlpha" type="matrix" values="0 0 0 0 0 0 0 0 0 0 0 0 0 0 0 0 0 0 127 0" result="hardAlpha"/>
<feOffset dy="6"/>
<feGaussianBlur stdDeviation="2"/>
<feComposite in2="hardAlpha" operator="out"/>
<feColorMatrix type="matrix" values="0 0 0 0 0.584314 0 0 0 0 0.0352941 0 0 0 0 0.321569 0 0 0 0.35 0"/>
<feBlend mode="normal" in2="BackgroundImageFix" result="effect1_dropShadow_1397_193"/>
<feBlend mode="normal" in="SourceGraphic" in2="effect1_dropShadow_1397_193" result="shape"/>
</filter>
<clipPath id="clip0_1397_193">
<rect width="471" height="420" fill="white"/>
</clipPath>
</defs>
</svg>
